# ammo_crate - original low-poly geometry for the craftmine first-person base.
# Ammunition crate with lid rim.
# Generated by tools/generate_meshes.mjs; edit the generator or this file, both are source.
# License: MIT, see ../../licenses/ORIGINAL_ASSETS_LICENSE.txt
# Units: metres. Godot convention: +Y up, -Z forward.
o ammo_crate
v -0.2200 0.0000 0.2200
v 0.2200 0.0000 0.2200
v 0.2200 0.3000 0.2200
v -0.2200 0.3000 0.2200
v -0.2200 0.0000 -0.2200
v 0.2200 0.0000 -0.2200
v 0.2200 0.3000 -0.2200
v -0.2200 0.3000 -0.2200
v -0.2450 0.3000 0.2450
v 0.2450 0.3000 0.2450
v 0.2450 0.3600 0.2450
v -0.2450 0.3600 0.2450
v -0.2450 0.3000 -0.2450
v 0.2450 0.3000 -0.2450
v 0.2450 0.3600 -0.2450
v -0.2450 0.3600 -0.2450
v -0.1800 0.3600 0.0300
v 0.1800 0.3600 0.0300
v 0.1800 0.4000 0.0300
v -0.1800 0.4000 0.0300
v -0.1800 0.3600 -0.0300
v 0.1800 0.3600 -0.0300
v 0.1800 0.4000 -0.0300
v -0.1800 0.4000 -0.0300
vn 0 0 1
vn 0 0 -1
vn 1 0 0
vn -1 0 0
vn 0 1 0
vn 0 -1 0
vn 0 0 1
vn 0 0 -1
vn 1 0 0
vn -1 0 0
vn 0 1 0
vn 0 -1 0
vn 0 0 1
vn 0 0 -1
vn 1 0 0
vn -1 0 0
vn 0 1 0
vn 0 -1 0
f 1//1 2//1 3//1 4//1
f 6//2 5//2 8//2 7//2
f 2//3 6//3 7//3 3//3
f 5//4 1//4 4//4 8//4
f 4//5 3//5 7//5 8//5
f 5//6 6//6 2//6 1//6
f 9//7 10//7 11//7 12//7
f 14//8 13//8 16//8 15//8
f 10//9 14//9 15//9 11//9
f 13//10 9//10 12//10 16//10
f 12//11 11//11 15//11 16//11
f 13//12 14//12 10//12 9//12
f 17//13 18//13 19//13 20//13
f 22//14 21//14 24//14 23//14
f 18//15 22//15 23//15 19//15
f 21//16 17//16 20//16 24//16
f 20//17 19//17 23//17 24//17
f 21//18 22//18 18//18 17//18
