# weapon_sword - original low-poly geometry for the craftmine first-person base.
# Training sword with tapered blade, guard, grip and pommel.
# Generated by tools/generate_meshes.mjs; edit the generator or this file, both are source.
# License: MIT, see ../../licenses/ORIGINAL_ASSETS_LICENSE.txt
# Units: metres. Godot convention: +Y up, -Z forward.
o weapon_sword
v -0.0120 0.0000 0.0000
v 0.0120 0.0000 0.0000
v 0.0120 0.0450 0.0000
v -0.0120 0.0450 0.0000
v -0.0120 0.0000 -0.9200
v 0.0120 0.0000 -0.9200
v 0.0120 0.0450 -0.9200
v -0.0120 0.0450 -0.9200
v -0.0080 0.0080 -0.9200
v 0.0080 0.0080 -0.9200
v 0.0080 0.0370 -0.9200
v -0.0080 0.0370 -0.9200
v -0.0080 0.0080 -0.9800
v 0.0080 0.0080 -0.9800
v 0.0080 0.0370 -0.9800
v -0.0080 0.0370 -0.9800
v -0.0750 -0.0100 0.0200
v 0.0750 -0.0100 0.0200
v 0.0750 0.0550 0.0200
v -0.0750 0.0550 0.0200
v -0.0750 -0.0100 -0.0200
v 0.0750 -0.0100 -0.0200
v 0.0750 0.0550 -0.0200
v -0.0750 0.0550 -0.0200
v -0.0180 -0.0200 0.1400
v 0.0180 -0.0200 0.1400
v 0.0180 0.0450 0.1400
v -0.0180 0.0450 0.1400
v -0.0180 -0.0200 0.0200
v 0.0180 -0.0200 0.0200
v 0.0180 0.0450 0.0200
v -0.0180 0.0450 0.0200
v -0.0260 -0.0260 0.1700
v 0.0260 -0.0260 0.1700
v 0.0260 0.0520 0.1700
v -0.0260 0.0520 0.1700
v -0.0260 -0.0260 0.1400
v 0.0260 -0.0260 0.1400
v 0.0260 0.0520 0.1400
v -0.0260 0.0520 0.1400
vn 0 0 1
vn 0 0 -1
vn 1 0 0
vn -1 0 0
vn 0 1 0
vn 0 -1 0
vn 0 0 1
vn 0 0 -1
vn 1 0 0
vn -1 0 0
vn 0 1 0
vn 0 -1 0
vn 0 0 1
vn 0 0 -1
vn 1 0 0
vn -1 0 0
vn 0 1 0
vn 0 -1 0
vn 0 0 1
vn 0 0 -1
vn 1 0 0
vn -1 0 0
vn 0 1 0
vn 0 -1 0
vn 0 0 1
vn 0 0 -1
vn 1 0 0
vn -1 0 0
vn 0 1 0
vn 0 -1 0
f 1//1 2//1 3//1 4//1
f 6//2 5//2 8//2 7//2
f 2//3 6//3 7//3 3//3
f 5//4 1//4 4//4 8//4
f 4//5 3//5 7//5 8//5
f 5//6 6//6 2//6 1//6
f 9//7 10//7 11//7 12//7
f 14//8 13//8 16//8 15//8
f 10//9 14//9 15//9 11//9
f 13//10 9//10 12//10 16//10
f 12//11 11//11 15//11 16//11
f 13//12 14//12 10//12 9//12
f 17//13 18//13 19//13 20//13
f 22//14 21//14 24//14 23//14
f 18//15 22//15 23//15 19//15
f 21//16 17//16 20//16 24//16
f 20//17 19//17 23//17 24//17
f 21//18 22//18 18//18 17//18
f 25//19 26//19 27//19 28//19
f 30//20 29//20 32//20 31//20
f 26//21 30//21 31//21 27//21
f 29//22 25//22 28//22 32//22
f 28//23 27//23 31//23 32//23
f 29//24 30//24 26//24 25//24
f 33//25 34//25 35//25 36//25
f 38//26 37//26 40//26 39//26
f 34//27 38//27 39//27 35//27
f 37//28 33//28 36//28 40//28
f 36//29 35//29 39//29 40//29
f 37//30 38//30 34//30 33//30
